<svg height="512" viewBox="0 0 96 96" width="512" xmlns="http://www.w3.org/2000/svg"><g id="Layer_4"><g><path d="m18.735 92h8.385c1.705 0 3.088-1.295 3.088-3s-1.382-3-3.088-3h-8.385c-4.57 0-8.735-4.219-8.735-8.963v-44.037h75v2.002c0 1.705 1.295 3.088 3 3.088s3-1.382 3-3.088v-16.035c0-8.045-6.379-14.967-14.337-14.967h-57.928c-7.975 0-14.735 6.783-14.735 14.967v58.071c0 8.149 6.76 14.962 14.735 14.962zm-8.735-73.033c0-4.698 4.242-8.967 8.735-8.967h57.928c4.611 0 8.337 4.269 8.337 8.967v8.033h-75z"/><path d="m74.671 17h-1.235c-1.705 0-3.088 1.295-3.088 3s1.382 3 3.088 3h1.235c1.705 0 3.088-1.295 3.088-3s-1.383-3-3.088-3z"/><path d="m64.173 17h-1.235c-1.705 0-3.088 1.295-3.088 3s1.382 3 3.088 3h1.235c1.705 0 3.088-1.295 3.088-3s-1.383-3-3.088-3z"/><path d="m53.057 17h-1.235c-1.705 0-3.088 1.295-3.088 3s1.382 3 3.088 3h1.235c1.705 0 3.088-1.295 3.088-3s-1.383-3-3.088-3z"/><path d="m84.744 45.354c-1.683-1.684-3.921-2.611-6.302-2.611s-4.619.927-6.302 2.611l-26.363 26.364c-.639.636-1.044 1.48-1.14 2.375l-1.403 13.05c-.109 4.981 4.986 4.959 5.241 4.916l12.262-2.121c.811-.139 1.546-.521 2.122-1.099l26.383-26.383c3.475-3.475 3.475-9.129 0-12.604zm-26.051 38.044-8.38 1.449.971-9.029 18.93-18.93 7.495 7.495zm25.746-25.745-1.927 1.926-7.495-7.495 1.927-1.927c.801-.8 2.197-.8 2.997 0l4.498 4.498c.826.827.826 2.171 0 2.998z"/></g></g></svg>